<svg xmlns="http://www.w3.org/2000/svg" id="canvas" viewBox="223.592 348.167 977.379 145.782"><path d="M 253.72,351.60 C 252.30 352.33, 251.39 353.39, 250.63 355.86 C 249.87 358.33, 250.30 360.03, 249.91 363.95 C 249.52 367.87, 249.39 370.43, 248.67 375.47 C 247.95 380.52, 247.50 383.51, 246.32 389.18 C 245.14 394.86, 244.30 397.91, 242.78 403.84 C 241.26 409.77, 240.40 412.88, 238.72 418.83 C 237.04 424.79, 236.00 427.93, 234.37 433.62 C 232.74 439.30, 231.80 442.15, 230.56 447.25 C 229.32 452.35, 228.93 454.70, 228.15 459.10 C 227.38 463.50, 226.80 465.45, 226.68 469.25 C 226.56 473.04, 226.38 475.00, 227.55 478.09 C 228.71 481.17, 230.05 482.61, 232.51 484.67 C 234.97 486.73, 236.39 487.47, 239.86 488.40 C 243.32 489.34, 245.43 489.41, 249.84 489.33 C 254.26 489.25, 256.91 488.79, 261.95 488.01 C 266.98 487.22, 270.05 486.49, 275.02 485.42 C 279.99 484.35, 282.26 483.90, 286.81 482.66 C 291.35 481.41, 295.79 480.81, 297.74 479.20 C 299.68 477.59, 299.00 475.06, 296.53 474.60 C 294.07 474.15, 289.97 475.97, 285.43 476.91 C 280.88 477.86, 278.68 478.45, 273.82 479.32 C 268.95 480.19, 265.85 480.80, 261.08 481.28 C 256.32 481.75, 253.80 481.94, 250.01 481.69 C 246.21 481.43, 244.61 480.67, 242.10 480.01 C 239.58 479.34, 238.83 479.32, 237.41 478.36 C 236.00 477.41, 235.71 477.08, 235.01 475.25 C 234.30 473.42, 234.06 472.26, 233.89 469.20 C 233.72 466.13, 233.79 464.06, 234.17 459.91 C 234.54 455.75, 234.77 453.40, 235.76 448.40 C 236.76 443.41, 237.61 440.59, 239.12 434.94 C 240.63 429.28, 241.64 426.10, 243.33 420.14 C 245.02 414.17, 245.89 411.06, 247.56 405.13 C 249.22 399.19, 250.14 396.13, 251.66 390.45 C 253.18 384.78, 253.88 381.80, 255.15 376.76 C 256.43 371.71, 257.17 369.19, 258.03 365.25 C 258.90 361.31, 259.54 359.69, 259.47 357.07 C 259.41 354.46, 258.86 353.27, 257.71 352.18 C 256.56 351.08, 255.14 350.86, 253.72 351.60" style="stroke: black; fill: black;"/><path d="M 390.89,426.49 C 391.68 425.14, 391.62 423.90, 390.95 422.24 C 390.27 420.57, 389.49 419.48, 387.52 418.16 C 385.54 416.84, 383.92 415.99, 381.08 415.61 C 378.25 415.24, 376.40 415.31, 373.34 416.27 C 370.29 417.23, 369.03 418.23, 365.82 420.42 C 362.61 422.60, 360.77 424.08, 357.30 427.19 C 353.83 430.30, 351.86 432.17, 348.46 435.96 C 345.06 439.74, 343.12 442.11, 340.30 446.12 C 337.48 450.14, 336.14 452.16, 334.37 456.03 C 332.61 459.90, 331.69 461.80, 331.47 465.47 C 331.26 469.15, 331.58 471.39, 333.28 474.40 C 334.98 477.40, 336.76 479.10, 339.96 480.49 C 343.16 481.88, 345.43 481.79, 349.27 481.35 C 353.10 480.91, 354.99 479.95, 359.12 478.28 C 363.26 476.62, 365.57 475.50, 369.94 473.03 C 374.32 470.56, 376.86 469.01, 381.01 465.96 C 385.16 462.90, 387.21 461.09, 390.71 457.78 C 394.21 454.46, 396.06 452.74, 398.51 449.37 C 400.96 446.00, 402.21 444.25, 402.98 440.92 C 403.74 437.59, 403.19 435.58, 402.35 432.72 C 401.51 429.86, 400.61 428.36, 398.76 426.60 C 396.92 424.85, 395.07 424.14, 393.12 423.96 C 391.18 423.77, 389.91 424.59, 389.03 425.68 C 388.15 426.77, 388.38 428.21, 388.71 429.40 C 389.04 430.60, 389.80 430.93, 390.66 431.64 C 391.53 432.36, 392.20 432.31, 393.03 432.97 C 393.85 433.63, 394.45 433.71, 394.81 434.93 C 395.17 436.16, 395.26 437.01, 394.82 439.10 C 394.38 441.19, 394.34 442.58, 392.62 445.39 C 390.90 448.21, 389.28 450.09, 386.22 453.18 C 383.16 456.28, 381.20 458.09, 377.32 460.87 C 373.43 463.66, 370.95 465.06, 366.81 467.13 C 362.66 469.19, 360.28 470.05, 356.58 471.19 C 352.89 472.33, 351.06 472.55, 348.35 472.81 C 345.64 473.07, 344.66 472.96, 343.01 472.50 C 341.37 472.04, 340.87 471.84, 340.14 470.53 C 339.40 469.21, 339.19 468.28, 339.33 465.93 C 339.46 463.58, 339.52 461.99, 340.79 458.78 C 342.06 455.56, 343.16 453.52, 345.67 449.86 C 348.19 446.21, 350.10 443.90, 353.37 440.52 C 356.64 437.14, 358.61 435.45, 362.00 432.96 C 365.40 430.47, 367.53 429.47, 370.35 428.08 C 373.18 426.69, 374.30 426.45, 376.12 426.02 C 377.94 425.59, 378.33 425.69, 379.45 425.94 C 380.58 426.18, 380.88 426.77, 381.76 427.25 C 382.63 427.73, 382.79 428.00, 383.84 428.34 C 384.89 428.69, 385.61 429.34, 387.02 428.97 C 388.43 428.60, 390.10 427.83, 390.89 426.49" style="stroke: black; fill: black;"/><path d="M 480.28,417.48 C 479.51 416.16, 478.47 415.72, 476.36 415.17 C 474.24 414.61, 472.71 413.99, 469.69 414.71 C 466.67 415.44, 464.76 416.78, 461.24 418.79 C 457.73 420.80, 455.95 422.02, 452.10 424.75 C 448.25 427.48, 446.03 429.19, 442.00 432.44 C 437.98 435.68, 435.74 437.38, 431.96 441.00 C 428.19 444.61, 426.10 446.80, 423.12 450.52 C 420.13 454.23, 418.61 455.97, 417.04 459.58 C 415.46 463.19, 414.85 465.26, 415.26 468.57 C 415.67 471.87, 416.71 473.80, 419.09 476.10 C 421.46 478.40, 423.24 479.19, 427.11 480.06 C 430.99 480.94, 433.51 480.71, 438.48 480.49 C 443.45 480.26, 446.34 479.86, 451.95 478.94 C 457.57 478.02, 460.74 477.29, 466.57 475.87 C 472.40 474.46, 475.68 473.60, 481.11 471.85 C 486.54 470.11, 489.28 469.15, 493.71 467.16 C 498.14 465.18, 501.71 463.73, 503.25 461.93 C 504.79 460.13, 503.74 458.08, 501.42 458.15 C 499.10 458.21, 496.04 460.54, 491.65 462.27 C 487.27 463.99, 484.75 465.10, 479.49 466.78 C 474.23 468.46, 471.02 469.40, 465.35 470.67 C 459.69 471.93, 456.54 472.52, 451.16 473.10 C 445.78 473.67, 442.91 473.72, 438.45 473.53 C 434.00 473.34, 431.76 472.76, 428.87 472.14 C 425.98 471.52, 425.27 471.27, 424.00 470.42 C 422.73 469.57, 422.58 469.48, 422.53 467.89 C 422.48 466.30, 422.63 465.16, 423.76 462.47 C 424.90 459.78, 425.74 457.85, 428.22 454.44 C 430.71 451.02, 432.67 448.81, 436.20 445.40 C 439.73 442.00, 441.91 440.33, 445.85 437.41 C 449.80 434.49, 452.14 432.92, 455.94 430.80 C 459.74 428.69, 461.59 427.86, 464.86 426.82 C 468.12 425.77, 469.88 426.15, 472.28 425.58 C 474.68 425.01, 475.26 424.75, 476.85 423.99 C 478.44 423.22, 479.53 423.07, 480.22 421.77 C 480.91 420.47, 481.05 418.80, 480.28 417.48" style="stroke: black; fill: black;"/><path d="M 571.81,430.65 C 572.01 429.18, 571.64 428.37, 570.55 426.97 C 569.46 425.58, 568.61 424.63, 566.35 423.67 C 564.09 422.71, 562.29 422.20, 559.24 422.17 C 556.19 422.13, 554.58 422.47, 551.12 423.49 C 547.67 424.51, 545.79 425.34, 541.98 427.24 C 538.16 429.15, 536.00 430.43, 532.05 433.01 C 528.09 435.60, 525.73 437.13, 522.20 440.16 C 518.67 443.20, 517.03 445.08, 514.41 448.20 C 511.79 451.33, 510.24 452.73, 509.08 455.78 C 507.92 458.83, 508.01 460.66, 508.61 463.44 C 509.22 466.22, 509.95 467.78, 512.11 469.68 C 514.26 471.57, 516.06 472.65, 519.39 472.93 C 522.71 473.21, 524.67 472.28, 528.71 471.09 C 532.75 469.90, 535.04 468.96, 539.58 466.98 C 544.11 465.00, 546.78 463.66, 551.41 461.17 C 556.04 458.67, 558.44 457.17, 562.73 454.50 C 567.02 451.84, 569.28 450.33, 572.88 447.84 C 576.48 445.35, 578.32 444.30, 580.72 442.06 C 583.12 439.83, 584.13 438.72, 584.88 436.67 C 585.63 434.62, 585.59 433.21, 584.49 431.81 C 583.39 430.42, 581.66 429.52, 579.37 429.71 C 577.08 429.89, 575.13 430.62, 573.03 432.74 C 570.92 434.86, 570.52 437.14, 568.84 440.30 C 567.16 443.47, 566.24 445.31, 564.63 448.58 C 563.02 451.84, 561.68 453.54, 560.78 456.62 C 559.87 459.70, 559.92 461.32, 560.10 463.99 C 560.29 466.66, 560.59 467.96, 561.69 469.97 C 562.79 471.98, 563.94 473.08, 565.60 474.06 C 567.26 475.04, 568.61 475.19, 570.01 474.89 C 571.41 474.60, 572.22 473.83, 572.58 472.58 C 572.93 471.34, 572.28 469.73, 571.79 468.65 C 571.30 467.57, 570.60 467.52, 570.14 467.19 C 569.67 466.87, 569.82 467.15, 569.45 467.03 C 569.07 466.90, 568.49 467.07, 568.27 466.55 C 568.05 466.03, 567.96 465.77, 568.36 464.45 C 568.77 463.12, 569.32 462.22, 570.29 459.95 C 571.25 457.68, 571.65 455.84, 573.20 453.09 C 574.76 450.33, 576.10 448.70, 578.05 446.18 C 580.00 443.66, 581.73 442.63, 582.95 440.49 C 584.17 438.35, 584.20 437.15, 584.15 435.47 C 584.10 433.80, 583.68 432.78, 582.70 432.12 C 581.72 431.46, 580.81 431.37, 579.27 432.17 C 577.74 432.97, 577.12 434.06, 575.03 436.13 C 572.94 438.20, 571.94 439.89, 568.82 442.53 C 565.71 445.16, 563.50 446.70, 559.45 449.32 C 555.39 451.94, 553.02 453.40, 548.54 455.63 C 544.06 457.85, 541.39 459.00, 537.05 460.44 C 532.72 461.88, 530.37 462.33, 526.87 462.82 C 523.37 463.32, 521.73 462.71, 519.54 462.90 C 517.36 463.10, 516.75 463.85, 515.95 463.81 C 515.14 463.77, 515.30 463.64, 515.51 462.70 C 515.72 461.77, 516.03 461.11, 517.00 459.14 C 517.97 457.18, 518.40 455.61, 520.37 452.88 C 522.34 450.15, 523.74 448.24, 526.85 445.50 C 529.95 442.76, 532.23 441.36, 535.90 439.19 C 539.56 437.02, 541.73 435.90, 545.19 434.65 C 548.65 433.40, 550.49 433.26, 553.18 432.94 C 555.87 432.62, 556.76 432.81, 558.63 433.05 C 560.50 433.29, 561.08 433.75, 562.54 434.14 C 564.00 434.53, 564.52 434.97, 565.91 435.01 C 567.31 435.05, 568.35 435.21, 569.53 434.34 C 570.71 433.47, 571.60 432.13, 571.81 430.65" style="stroke: black; fill: black;"/><path d="M 648.45,367.70 C 646.96 367.99, 645.81 368.46, 644.48 370.67 C 643.14 372.87, 643.34 374.74, 641.78 378.71 C 640.23 382.68, 639.10 385.22, 636.69 390.52 C 634.28 395.81, 632.74 399.33, 629.74 405.17 C 626.73 411.02, 624.85 414.02, 621.67 419.74 C 618.49 425.46, 616.61 428.48, 613.85 433.77 C 611.08 439.06, 609.90 441.59, 607.85 446.19 C 605.80 450.80, 604.83 452.98, 603.60 456.78 C 602.37 460.58, 601.71 462.28, 601.71 465.20 C 601.70 468.12, 602.53 469.44, 603.58 471.37 C 604.62 473.30, 605.60 474.19, 606.93 474.87 C 608.27 475.54, 609.37 475.33, 610.24 474.75 C 611.11 474.17, 611.18 472.84, 611.30 471.97 C 611.41 471.11, 611.07 471.13, 610.83 470.43 C 610.59 469.72, 610.39 469.49, 610.09 468.45 C 609.80 467.40, 609.38 467.18, 609.37 465.19 C 609.36 463.21, 609.34 461.92, 610.05 458.52 C 610.76 455.13, 611.31 452.75, 612.93 448.24 C 614.55 443.72, 615.58 441.19, 618.15 435.95 C 620.72 430.71, 622.57 427.71, 625.78 422.04 C 628.98 416.36, 630.91 413.32, 634.17 407.56 C 637.42 401.81, 639.16 398.39, 642.07 393.26 C 644.98 388.14, 646.65 385.80, 648.73 381.94 C 650.82 378.08, 651.86 376.53, 652.49 373.98 C 653.13 371.44, 652.71 370.46, 651.90 369.20 C 651.09 367.95, 649.93 367.41, 648.45 367.70" style="stroke: black; fill: black;"/><path d="M 813.01,394.76 C 811.73 395.02, 811.27 395.25, 810.15 396.79 C 809.04 398.32, 808.55 399.34, 807.43 402.45 C 806.31 405.56, 806.24 407.98, 804.54 412.35 C 802.84 416.72, 801.56 419.40, 798.94 424.30 C 796.32 429.21, 794.53 431.95, 791.45 436.87 C 788.37 441.79, 786.60 444.28, 783.55 448.88 C 780.49 453.48, 778.82 455.88, 776.16 459.86 C 773.51 463.85, 772.22 465.74, 770.26 468.83 C 768.30 471.92, 767.23 473.10, 766.37 475.33 C 765.51 477.57, 765.86 478.63, 765.95 480.00 C 766.05 481.36, 766.31 481.60, 766.84 482.16 C 767.37 482.71, 767.86 482.82, 768.59 482.77 C 769.33 482.71, 769.55 482.67, 770.53 481.89 C 771.51 481.11, 772.30 480.78, 773.50 478.86 C 774.69 476.94, 774.96 475.49, 776.50 472.30 C 778.04 469.12, 778.88 467.05, 781.19 462.95 C 783.49 458.85, 785.08 456.44, 788.04 451.80 C 790.99 447.17, 792.75 444.66, 795.96 439.76 C 799.17 434.86, 801.04 432.13, 804.08 427.29 C 807.12 422.45, 808.68 419.81, 811.16 415.56 C 813.64 411.31, 815.08 409.29, 816.48 406.03 C 817.88 402.77, 818.16 401.37, 818.17 399.26 C 818.18 397.15, 817.56 396.40, 816.52 395.50 C 815.49 394.60, 814.28 394.51, 813.01 394.76" style="stroke: black; fill: black;"/><path d="M 824.97,376.96 C 826.29 377.91, 827.56 378.08, 830.29 377.87 C 833.03 377.66, 834.72 376.56, 838.63 375.91 C 842.53 375.26, 845.41 374.89, 849.81 374.63 C 854.22 374.37, 856.67 374.26, 860.65 374.62 C 864.64 374.97, 866.90 375.60, 869.75 376.40 C 872.59 377.20, 873.58 377.76, 874.87 378.63 C 876.15 379.50, 876.39 379.41, 876.16 380.74 C 875.93 382.06, 875.65 382.72, 873.73 385.26 C 871.80 387.79, 870.32 389.85, 866.54 393.42 C 862.76 396.99, 860.05 399.28, 854.83 403.12 C 849.61 406.97, 846.05 409.08, 840.44 412.64 C 834.83 416.20, 831.62 418.02, 826.77 420.92 C 821.92 423.83, 819.37 424.80, 816.19 427.16 C 813.00 429.53, 811.73 430.36, 810.85 432.73 C 809.97 435.09, 810.49 436.71, 811.79 438.97 C 813.09 441.24, 814.52 442.79, 817.35 444.05 C 820.17 445.31, 822.35 444.77, 825.92 445.27 C 829.50 445.77, 831.65 445.78, 835.22 446.55 C 838.80 447.31, 840.73 447.83, 843.80 449.08 C 846.87 450.33, 848.37 451.32, 850.55 452.79 C 852.74 454.25, 853.56 455.05, 854.75 456.41 C 855.93 457.78, 856.23 458.38, 856.49 459.62 C 856.75 460.86, 856.78 461.30, 856.03 462.61 C 855.28 463.92, 854.69 464.36, 852.72 466.16 C 850.76 467.96, 849.53 469.45, 846.20 471.59 C 842.87 473.73, 840.62 475.00, 836.06 476.85 C 831.50 478.70, 828.81 479.55, 823.40 480.84 C 817.99 482.13, 814.66 482.58, 809.03 483.29 C 803.40 484.01, 800.08 484.12, 795.27 484.41 C 790.46 484.70, 788.45 484.57, 784.99 484.74 C 781.54 484.90, 779.48 484.47, 778.00 485.25 C 776.53 486.04, 776.24 487.55, 777.61 488.67 C 778.98 489.79, 781.24 490.51, 784.86 490.84 C 788.48 491.16, 790.72 490.72, 795.70 490.30 C 800.68 489.87, 803.97 489.52, 809.75 488.71 C 815.53 487.91, 818.93 487.47, 824.62 486.28 C 830.31 485.09, 833.15 484.38, 838.20 482.76 C 843.24 481.14, 845.73 480.15, 849.83 478.19 C 853.94 476.23, 855.89 475.38, 858.71 472.97 C 861.52 470.57, 862.74 469.12, 863.91 466.18 C 865.08 463.24, 865.01 461.28, 864.56 458.27 C 864.10 455.26, 863.46 453.70, 861.64 451.13 C 859.81 448.57, 858.37 447.39, 855.42 445.45 C 852.47 443.51, 850.49 442.85, 846.88 441.42 C 843.27 439.99, 841.20 439.45, 837.39 438.28 C 833.58 437.11, 831.32 436.45, 827.84 435.56 C 824.37 434.67, 822.53 433.95, 820.02 433.81 C 817.51 433.68, 816.26 434.57, 815.27 434.88 C 814.27 435.20, 814.11 435.88, 815.04 435.39 C 815.98 434.89, 817.03 434.41, 819.94 432.41 C 822.85 430.40, 824.97 428.48, 829.59 425.35 C 834.22 422.23, 837.41 420.36, 843.06 416.77 C 848.72 413.18, 852.34 411.14, 857.85 407.41 C 863.36 403.68, 866.24 401.63, 870.62 398.10 C 875.00 394.58, 877.24 393.17, 879.76 389.78 C 882.28 386.38, 883.18 384.45, 883.22 381.14 C 883.25 377.82, 882.18 375.64, 879.93 373.21 C 877.68 370.77, 875.69 370.12, 871.96 368.96 C 868.23 367.81, 865.75 367.81, 861.27 367.43 C 856.79 367.06, 854.31 367.07, 849.58 367.10 C 844.84 367.12, 841.87 367.20, 837.59 367.57 C 833.31 367.94, 830.95 367.84, 828.17 368.95 C 825.39 370.06, 824.33 371.50, 823.69 373.10 C 823.05 374.70, 823.65 376.00, 824.97 376.96" style="stroke: black; fill: black;"/><path d="M 918.50,420.57 C 917.31 420.22, 917.10 420.28, 915.62 420.80 C 914.13 421.31, 912.90 421.30, 911.05 423.16 C 909.20 425.02, 908.38 426.92, 906.36 430.10 C 904.35 433.29, 903.23 435.62, 900.99 439.09 C 898.74 442.57, 897.30 444.17, 895.13 447.49 C 892.97 450.80, 891.66 452.41, 890.16 455.66 C 888.66 458.90, 887.82 460.75, 887.65 463.70 C 887.48 466.65, 888.07 468.03, 889.30 470.41 C 890.54 472.79, 891.40 474.09, 893.81 475.60 C 896.23 477.12, 898.08 478.01, 901.39 477.97 C 904.70 477.93, 906.51 476.81, 910.36 475.40 C 914.21 473.99, 916.29 473.19, 920.64 470.91 C 924.99 468.64, 927.39 467.04, 932.09 464.02 C 936.79 461.00, 939.38 459.29, 944.12 455.81 C 948.86 452.32, 951.38 450.36, 955.78 446.61 C 960.18 442.85, 962.39 440.58, 966.13 437.04 C 969.86 433.51, 971.74 431.84, 974.43 428.93 C 977.13 426.02, 978.65 424.77, 979.60 422.47 C 980.55 420.16, 980.20 418.71, 979.20 417.41 C 978.19 416.10, 976.63 415.51, 974.57 415.94 C 972.51 416.37, 970.84 417.12, 968.91 419.56 C 966.98 422.00, 966.71 424.41, 964.92 428.12 C 963.14 431.83, 961.98 434.19, 959.99 438.12 C 958.00 442.04, 956.84 444.09, 954.97 447.75 C 953.10 451.41, 951.94 453.07, 950.65 456.43 C 949.35 459.78, 948.63 461.62, 948.51 464.52 C 948.40 467.42, 949.07 468.90, 950.07 470.95 C 951.08 472.99, 952.14 473.95, 953.55 474.74 C 954.95 475.53, 956.09 475.49, 957.11 474.90 C 958.13 474.31, 958.49 472.81, 958.63 471.79 C 958.78 470.78, 958.18 470.55, 957.85 469.82 C 957.52 469.09, 957.17 469.07, 956.98 468.15 C 956.79 467.23, 956.61 467.02, 956.89 465.24 C 957.18 463.46, 957.46 462.09, 958.42 459.25 C 959.38 456.42, 960.02 454.55, 961.69 451.08 C 963.35 447.61, 964.49 445.54, 966.74 441.90 C 968.99 438.27, 970.59 436.12, 972.94 432.90 C 975.29 429.68, 977.15 428.38, 978.49 425.80 C 979.83 423.23, 979.88 421.82, 979.62 420.03 C 979.37 418.23, 978.49 417.20, 977.21 416.83 C 975.93 416.47, 974.84 416.67, 973.23 418.20 C 971.61 419.74, 971.37 421.53, 969.14 424.49 C 966.91 427.45, 965.42 429.39, 962.06 433.01 C 958.70 436.64, 956.54 438.92, 952.32 442.61 C 948.11 446.30, 945.65 448.18, 941.00 451.47 C 936.34 454.75, 933.70 456.38, 929.06 459.03 C 924.42 461.67, 921.98 463.06, 917.79 464.69 C 913.60 466.33, 911.50 466.64, 908.12 467.20 C 904.74 467.76, 903.11 467.29, 900.89 467.51 C 898.68 467.73, 898.09 468.31, 897.03 468.29 C 895.97 468.28, 895.82 468.11, 895.60 467.42 C 895.39 466.74, 895.45 466.51, 895.93 464.87 C 896.41 463.23, 896.82 461.85, 898.00 459.24 C 899.18 456.64, 899.86 454.88, 901.83 451.83 C 903.79 448.79, 905.33 447.14, 907.83 444.01 C 910.32 440.88, 911.89 438.80, 914.31 436.18 C 916.74 433.57, 918.40 432.95, 919.94 430.93 C 921.48 428.91, 921.70 427.77, 922.03 426.09 C 922.35 424.41, 922.27 423.63, 921.57 422.53 C 920.86 421.42, 919.69 420.91, 918.50 420.57" style="stroke: black; fill: black;"/><path d="M 1018.33,418.86 C 1017.07 418.85, 1016.68 418.79, 1015.24 419.99 C 1013.80 421.20, 1012.87 422.12, 1011.14 424.91 C 1009.40 427.70, 1008.65 430.08, 1006.58 433.95 C 1004.51 437.82, 1003.18 440.31, 1000.81 444.26 C 998.43 448.21, 996.78 450.26, 994.69 453.68 C 992.60 457.10, 991.39 458.71, 990.34 461.36 C 989.29 464.00, 989.34 465.08, 989.43 466.90 C 989.51 468.72, 990.11 469.61, 990.75 470.47 C 991.40 471.32, 992.10 471.22, 992.66 471.17 C 993.23 471.12, 993.21 470.45, 993.57 470.21 C 993.93 469.96, 993.98 470.29, 994.45 469.95 C 994.93 469.60, 995.20 469.49, 995.96 468.47 C 996.73 467.45, 997.20 467.05, 998.28 464.86 C 999.36 462.66, 999.60 460.83, 1001.36 457.49 C 1003.12 454.15, 1004.62 451.99, 1007.08 448.17 C 1009.55 444.36, 1011.10 441.95, 1013.69 438.41 C 1016.27 434.86, 1018.18 433.34, 1020.00 430.45 C 1021.82 427.57, 1022.47 426.08, 1022.78 424.00 C 1023.09 421.91, 1022.44 421.05, 1021.55 420.03 C 1020.66 419.00, 1019.59 418.86, 1018.33 418.86" style="stroke: black; fill: black;"/><path d="M 1040.86,375.31 C 1040.42 376.29, 1040.62 376.47, 1039.86 377.53 C 1039.11 378.59, 1036.99 380.40, 1037.07 380.62 C 1037.16 380.84, 1038.34 380.19, 1040.30 378.63 C 1042.25 377.07, 1045.32 374.88, 1046.85 372.84 C 1048.38 370.80, 1048.60 368.88, 1047.94 368.44 C 1047.29 368.00, 1044.75 369.80, 1043.57 370.64 C 1042.40 371.47, 1042.60 371.69, 1042.06 372.63 C 1041.52 373.56, 1041.30 374.33, 1040.86 375.31" style="stroke: black; fill: black;"/><path d="M 1100.28,361.11 C 1098.82 360.95, 1097.63 361.00, 1095.79 362.71 C 1093.95 364.42, 1093.38 366.03, 1091.09 369.66 C 1088.79 373.29, 1087.41 375.93, 1084.33 380.87 C 1081.24 385.80, 1079.32 388.73, 1075.65 394.33 C 1071.99 399.92, 1069.80 403.12, 1066.02 408.83 C 1062.23 414.55, 1060.22 417.57, 1056.73 422.90 C 1053.23 428.24, 1051.48 430.74, 1048.53 435.52 C 1045.57 440.30, 1044.15 442.65, 1041.95 446.80 C 1039.74 450.95, 1038.60 452.85, 1037.50 456.27 C 1036.40 459.69, 1036.04 461.24, 1036.45 463.90 C 1036.86 466.56, 1037.70 467.90, 1039.55 469.58 C 1041.40 471.26, 1043.26 471.95, 1045.71 472.30 C 1048.17 472.65, 1050.02 472.47, 1051.85 471.32 C 1053.68 470.18, 1054.67 468.45, 1054.86 466.58 C 1055.05 464.71, 1054.22 463.14, 1052.81 461.99 C 1051.39 460.84, 1049.49 460.62, 1047.80 460.83 C 1046.11 461.05, 1045.34 462.21, 1044.36 463.06 C 1043.37 463.92, 1043.09 464.97, 1042.88 465.11 C 1042.68 465.26, 1042.99 465.13, 1043.34 463.78 C 1043.68 462.44, 1043.81 461.28, 1044.59 458.37 C 1045.36 455.47, 1045.57 453.33, 1047.21 449.26 C 1048.85 445.19, 1050.11 442.80, 1052.78 438.03 C 1055.45 433.25, 1057.15 430.71, 1060.55 425.38 C 1063.95 420.05, 1065.95 417.01, 1069.79 411.37 C 1073.63 405.72, 1075.85 402.55, 1079.75 397.14 C 1083.65 391.74, 1085.75 388.92, 1089.30 384.33 C 1092.85 379.75, 1094.86 377.52, 1097.50 374.23 C 1100.14 370.94, 1101.39 370.01, 1102.51 367.87 C 1103.63 365.73, 1103.55 364.87, 1103.10 363.52 C 1102.66 362.17, 1101.75 361.27, 1100.28 361.11" style="stroke: black; fill: black;"/><path d="M 1151.61,432.16 C 1151.44 430.65, 1150.91 429.60, 1149.30 428.45 C 1147.69 427.29, 1146.22 426.79, 1143.58 426.39 C 1140.94 426.00, 1139.29 425.82, 1136.12 426.46 C 1132.94 427.11, 1131.06 428.09, 1127.70 429.62 C 1124.34 431.15, 1122.74 432.14, 1119.32 434.10 C 1115.91 436.06, 1113.79 437.11, 1110.63 439.41 C 1107.47 441.71, 1105.90 442.93, 1103.51 445.59 C 1101.12 448.25, 1099.79 449.75, 1098.68 452.71 C 1097.57 455.67, 1097.40 457.56, 1097.95 460.40 C 1098.50 463.25, 1099.46 464.81, 1101.43 466.92 C 1103.41 469.04, 1104.81 470.05, 1107.81 470.98 C 1110.82 471.92, 1112.77 471.84, 1116.48 471.59 C 1120.19 471.35, 1122.38 470.90, 1126.36 469.73 C 1130.35 468.57, 1132.54 467.68, 1136.40 465.77 C 1140.25 463.87, 1141.91 462.71, 1145.63 460.22 C 1149.35 457.72, 1151.24 456.38, 1154.99 453.31 C 1158.74 450.23, 1160.98 448.51, 1164.37 444.84 C 1167.76 441.18, 1169.11 439.11, 1171.94 434.98 C 1174.77 430.85, 1176.02 428.64, 1178.53 424.21 C 1181.04 419.78, 1182.35 417.37, 1184.48 412.81 C 1186.62 408.24, 1187.46 405.66, 1189.21 401.37 C 1190.96 397.09, 1191.66 395.02, 1193.24 391.37 C 1194.82 387.73, 1196.27 386.27, 1197.12 383.17 C 1197.96 380.06, 1198.36 377.99, 1197.46 375.87 C 1196.56 373.75, 1194.81 372.67, 1192.61 372.55 C 1190.42 372.43, 1188.62 372.88, 1186.49 375.27 C 1184.37 377.66, 1184.05 380.09, 1182.00 384.50 C 1179.94 388.91, 1178.55 391.98, 1176.23 397.32 C 1173.90 402.66, 1172.62 405.75, 1170.37 411.19 C 1168.11 416.63, 1166.87 419.39, 1164.96 424.54 C 1163.05 429.68, 1162.12 432.25, 1160.82 436.94 C 1159.51 441.62, 1159.10 443.77, 1158.43 447.95 C 1157.76 452.14, 1157.48 454.26, 1157.48 457.85 C 1157.47 461.44, 1157.73 463.10, 1158.41 465.90 C 1159.10 468.70, 1159.71 470.02, 1160.90 471.87 C 1162.10 473.71, 1163.09 474.37, 1164.38 475.12 C 1165.66 475.87, 1166.35 475.88, 1167.34 475.60 C 1168.34 475.32, 1168.91 474.62, 1169.34 473.74 C 1169.76 472.85, 1169.65 472.33, 1169.48 471.18 C 1169.30 470.04, 1169.00 469.53, 1168.48 468.01 C 1167.96 466.49, 1167.53 465.72, 1166.88 463.60 C 1166.23 461.48, 1165.61 460.38, 1165.22 457.39 C 1164.82 454.41, 1164.68 452.49, 1164.91 448.68 C 1165.14 444.87, 1165.35 442.80, 1166.36 438.34 C 1167.37 433.87, 1168.17 431.36, 1169.96 426.36 C 1171.76 421.36, 1172.97 418.60, 1175.33 413.33 C 1177.69 408.06, 1179.05 405.01, 1181.76 400.01 C 1184.46 395.01, 1186.29 392.20, 1188.85 388.31 C 1191.41 384.43, 1193.43 383.11, 1194.55 380.59 C 1195.67 378.06, 1195.08 376.74, 1194.46 375.69 C 1193.84 374.64, 1192.61 374.38, 1191.45 375.35 C 1190.28 376.32, 1189.58 377.81, 1188.62 380.54 C 1187.66 383.27, 1187.71 385.30, 1186.66 389.02 C 1185.60 392.74, 1184.87 394.88, 1183.36 399.14 C 1181.84 403.41, 1181.06 405.90, 1179.09 410.34 C 1177.11 414.79, 1175.88 417.11, 1173.48 421.37 C 1171.09 425.62, 1169.83 427.77, 1167.12 431.63 C 1164.40 435.49, 1163.15 437.31, 1159.93 440.65 C 1156.71 443.99, 1154.60 445.55, 1151.01 448.33 C 1147.43 451.12, 1145.54 452.42, 1142.02 454.56 C 1138.49 456.70, 1136.90 457.64, 1133.38 459.04 C 1129.87 460.43, 1127.89 460.97, 1124.45 461.54 C 1121.01 462.11, 1119.07 461.95, 1116.19 461.90 C 1113.32 461.84, 1111.97 461.46, 1110.08 461.25 C 1108.18 461.05, 1107.62 461.25, 1106.71 460.86 C 1105.81 460.47, 1105.54 460.20, 1105.55 459.30 C 1105.56 458.40, 1105.82 457.92, 1106.75 456.37 C 1107.69 454.82, 1108.43 453.57, 1110.21 451.54 C 1111.98 449.51, 1112.97 448.18, 1115.62 446.22 C 1118.27 444.25, 1120.36 443.27, 1123.44 441.72 C 1126.52 440.18, 1128.14 439.28, 1131.00 438.48 C 1133.87 437.69, 1135.44 437.92, 1137.77 437.76 C 1140.10 437.60, 1140.83 437.72, 1142.66 437.69 C 1144.48 437.65, 1145.39 437.94, 1146.89 437.60 C 1148.39 437.26, 1149.21 437.09, 1150.15 436.00 C 1151.09 434.91, 1151.78 433.67, 1151.61 432.16" style="stroke: black; fill: black;"/></svg>